<?xml version="1.0" encoding="utf-8"?>
<!-- Generator: Adobe Illustrator 16.0.3, SVG Export Plug-In . SVG Version: 6.00 Build 0)  -->
<!DOCTYPE svg PUBLIC "-//W3C//DTD SVG 1.1//EN" "http://www.w3.org/Graphics/SVG/1.1/DTD/svg11.dtd">
<svg version="1.1" id="Layer_1" xmlns="http://www.w3.org/2000/svg" xmlns:xlink="http://www.w3.org/1999/xlink" x="0px" y="0px"
	 width="500px" height="560px" viewBox="0 0 500 560" enable-background="new 0 0 500 560" xml:space="preserve">
<g>
	<path d="M96.108,251.139l26.486,47.543l-42.912,77.546l-2.254,4.069H24.622l6.481-11.717L96.108,251.139z M254.051,380.298h-52.806
		l-2.254-4.069l-39.519-71.424l-19.365-34.976l-0.771-1.395l-26.486-47.543l0.088-0.158l2.114-3.824l17.233-31.125l2.026-4.376
		h10.112l1.956,4.358l17.242,31.143l83.948,151.672L254.051,380.298z"/>
	<path d="M325.323,302.752l26.171,35.458l-28.626,38.878l-2.359,3.21h-52.288l9.262-12.577L325.323,302.752z M471.26,380.298H418.98
		l-2.368-3.219l-26.723-36.282l-20.128-27.336l-0.026,0.034l-0.026-0.026l-26.17-35.449l0.062-0.088l-61.356-83.343l-9.261-12.568
		h52.27l2.368,3.21l42.123,57.199l42.115-57.199l2.367-3.21h52.279l-9.261,12.576l-61.365,83.334l66.118,89.789L471.26,380.298z"/>
</g>
<g display="none">
	<path display="inline" d="M63.088,430.973H57.68c-0.607,0-1.105-0.151-1.495-0.455c-0.39-0.303-0.672-0.68-0.845-1.131l-2.808-7.67
		H36.958l-2.808,7.67c-0.139,0.398-0.412,0.763-0.819,1.092c-0.407,0.33-0.906,0.494-1.495,0.494h-5.434l14.768-37.596h7.15
		L63.088,430.973z M38.752,416.777h11.986l-4.576-12.507c-0.208-0.554-0.438-1.209-0.689-1.963
		c-0.251-0.754-0.499-1.573-0.741-2.457c-0.243,0.884-0.481,1.708-0.715,2.47c-0.234,0.764-0.464,1.43-0.689,2.002L38.752,416.777z"
		/>
	<path display="inline" d="M74.839,430.973h-7.02v-37.596h7.02V430.973z"/>
	<path display="inline" d="M119.169,422.106c0.381,0,0.71,0.147,0.988,0.442l2.756,2.99c-1.525,1.889-3.402,3.336-5.629,4.342
		c-2.228,1.006-4.901,1.508-8.021,1.508c-2.791,0-5.3-0.477-7.527-1.43c-2.228-0.953-4.13-2.279-5.707-3.979
		c-1.578-1.698-2.787-3.727-3.627-6.084c-0.841-2.357-1.261-4.931-1.261-7.722c0-2.825,0.468-5.412,1.404-7.761
		c0.936-2.35,2.253-4.373,3.952-6.071s3.731-3.021,6.097-3.966c2.366-0.943,4.979-1.416,7.839-1.416c2.791,0,5.23,0.446,7.319,1.339
		c2.088,0.893,3.878,2.075,5.369,3.549l-2.34,3.25c-0.139,0.208-0.316,0.39-0.533,0.546c-0.217,0.156-0.516,0.234-0.897,0.234
		c-0.399,0-0.806-0.156-1.222-0.469c-0.416-0.312-0.945-0.649-1.586-1.014c-0.642-0.363-1.452-0.701-2.431-1.014
		c-0.979-0.313-2.223-0.469-3.731-0.469c-1.768,0-3.393,0.309-4.875,0.924s-2.756,1.494-3.822,2.639
		c-1.066,1.145-1.898,2.535-2.496,4.173c-0.598,1.638-0.897,3.479-0.897,5.525c0,2.114,0.299,3.995,0.897,5.642
		c0.598,1.646,1.408,3.033,2.431,4.16c1.022,1.127,2.227,1.989,3.614,2.587c1.386,0.599,2.877,0.897,4.472,0.897
		c0.953,0,1.816-0.053,2.587-0.156c0.771-0.104,1.482-0.269,2.132-0.494c0.65-0.225,1.265-0.516,1.846-0.871
		c0.58-0.355,1.157-0.793,1.729-1.313c0.173-0.156,0.355-0.281,0.546-0.377C118.735,422.154,118.943,422.106,119.169,422.106z"/>
	<path display="inline" d="M135.418,416.283v14.689h-6.994v-37.596h11.466c2.565,0,4.762,0.264,6.591,0.793s3.328,1.27,4.498,2.223
		s2.028,2.094,2.574,3.419c0.546,1.326,0.819,2.786,0.819,4.382c0,1.265-0.187,2.461-0.559,3.588
		c-0.373,1.127-0.91,2.148-1.612,3.067c-0.702,0.919-1.569,1.726-2.6,2.418c-1.032,0.693-2.206,1.248-3.523,1.664
		c0.884,0.503,1.646,1.222,2.288,2.158l9.412,13.884h-6.292c-0.607,0-1.122-0.121-1.547-0.363c-0.425-0.243-0.784-0.59-1.079-1.041
		l-7.904-12.037c-0.295-0.451-0.62-0.771-0.975-0.963c-0.355-0.19-0.88-0.285-1.573-0.285H135.418z M135.418,411.265h4.368
		c1.317,0,2.465-0.165,3.445-0.494c0.979-0.329,1.785-0.784,2.418-1.364c0.633-0.581,1.105-1.27,1.417-2.067
		s0.468-1.673,0.468-2.626c0-1.906-0.628-3.371-1.885-4.395c-1.257-1.022-3.176-1.533-5.759-1.533h-4.472V411.265z"/>
	<path display="inline" d="M195.296,430.973h-5.408c-0.607,0-1.105-0.151-1.495-0.455c-0.39-0.303-0.672-0.68-0.845-1.131
		l-2.808-7.67h-15.574l-2.808,7.67c-0.139,0.398-0.412,0.763-0.819,1.092c-0.407,0.33-0.906,0.494-1.495,0.494h-5.434l14.768-37.596
		h7.15L195.296,430.973z M170.96,416.777h11.986l-4.576-12.507c-0.208-0.554-0.438-1.209-0.689-1.963
		c-0.251-0.754-0.499-1.573-0.741-2.457c-0.243,0.884-0.481,1.708-0.715,2.47c-0.234,0.764-0.464,1.43-0.689,2.002L170.96,416.777z"
		/>
	<path display="inline" d="M222.881,393.377v5.563h-16.666v11.128h14.066v5.59h-14.066v15.314h-7.046v-37.596H222.881z"/>
	<path display="inline" d="M254.861,393.377v5.746h-11.31v31.85h-6.994v-31.85h-11.362v-5.746H254.861z"/>
	<path display="inline" d="M283.019,393.377v5.563h-16.666v10.427h13.13v5.381h-13.13v10.635h16.666v5.59h-23.712v-37.596H283.019z"
		/>
	<path display="inline" d="M322.461,412.175c0,2.756-0.46,5.286-1.379,7.592c-0.918,2.306-2.21,4.29-3.873,5.954
		c-1.664,1.664-3.666,2.955-6.007,3.874c-2.34,0.919-4.931,1.378-7.774,1.378h-14.352v-37.596h14.352
		c2.844,0,5.435,0.464,7.774,1.391c2.341,0.928,4.343,2.219,6.007,3.874c1.663,1.655,2.955,3.636,3.873,5.94
		C322.001,406.889,322.461,409.418,322.461,412.175z M315.311,412.175c0-2.063-0.277-3.913-0.832-5.552
		c-0.555-1.637-1.344-3.023-2.366-4.159s-2.267-2.007-3.731-2.613s-3.115-0.91-4.953-0.91h-7.306v26.468h7.306
		c1.838,0,3.488-0.303,4.953-0.91c1.465-0.605,2.709-1.477,3.731-2.612s1.812-2.522,2.366-4.16S315.311,414.238,315.311,412.175z"/>
	<path display="inline" d="M364.476,393.377v5.746h-11.31v31.85h-6.994v-31.85H334.81v-5.746H364.476z"/>
	<path display="inline" d="M402.955,412.175c0,2.756-0.459,5.308-1.377,7.657c-0.92,2.349-2.211,4.381-3.875,6.097
		s-3.666,3.056-6.006,4.017c-2.34,0.963-4.932,1.443-7.773,1.443c-2.844,0-5.438-0.48-7.787-1.443
		c-2.35-0.961-4.359-2.301-6.032-4.017s-2.968-3.748-3.887-6.097c-0.919-2.35-1.378-4.901-1.378-7.657
		c0-2.757,0.459-5.308,1.378-7.657c0.919-2.349,2.214-4.381,3.887-6.097s3.683-3.056,6.032-4.017
		c2.349-0.963,4.943-1.443,7.787-1.443c2.842,0,5.434,0.485,7.773,1.455c2.34,0.972,4.342,2.311,6.006,4.018
		s2.955,3.735,3.875,6.084C402.496,406.867,402.955,409.418,402.955,412.175z M395.779,412.175c0-2.063-0.272-3.913-0.818-5.552
		c-0.547-1.637-1.33-3.028-2.354-4.172c-1.022-1.145-2.266-2.02-3.73-2.627c-1.465-0.605-3.116-0.91-4.953-0.91
		c-1.838,0-3.493,0.305-4.967,0.91c-1.473,0.607-2.725,1.482-3.756,2.627c-1.032,1.144-1.825,2.535-2.379,4.172
		c-0.556,1.639-0.832,3.489-0.832,5.552c0,2.063,0.276,3.913,0.832,5.551c0.554,1.638,1.347,3.024,2.379,4.16
		c1.031,1.136,2.283,2.007,3.756,2.612c1.474,0.607,3.129,0.91,4.967,0.91c1.837,0,3.488-0.303,4.953-0.91
		c1.465-0.605,2.708-1.477,3.73-2.612c1.023-1.136,1.807-2.522,2.354-4.16C395.507,416.088,395.779,414.238,395.779,412.175z"/>
	<path display="inline" d="M412.914,393.416c0.207,0.025,0.394,0.078,0.559,0.156c0.164,0.077,0.324,0.19,0.48,0.338
		c0.156,0.146,0.329,0.342,0.52,0.584l19.734,25.143c-0.069-0.606-0.117-1.2-0.143-1.781c-0.025-0.58-0.039-1.122-0.039-1.625
		v-22.854h6.162v37.596h-3.614c-0.555,0-1.014-0.086-1.378-0.26c-0.363-0.174-0.719-0.485-1.066-0.936l-19.656-25.039
		c0.053,0.555,0.092,1.105,0.117,1.651c0.026,0.546,0.039,1.044,0.039,1.495v23.088h-6.162v-37.596h3.666
		C412.445,393.377,412.705,393.39,412.914,393.416z"/>
	<path display="inline" d="M471.491,393.377v5.563h-16.666v10.427h13.13v5.381h-13.13v10.635h16.666v5.59h-23.712v-37.596H471.491z"
		/>
</g>
<g>
</g>
<g>
</g>
<g>
</g>
<g>
</g>
<g>
</g>
<g>
</g>
<g>
</g>
<g>
</g>
<g>
</g>
<g>
</g>
<g>
</g>
<g>
</g>
<g>
</g>
<g>
</g>
<g>
</g>
</svg>
